<svg width="98" height="94" viewBox="0 0 98 94" fill="none" xmlns="http://www.w3.org/2000/svg">
<line x1="89" y1="93.5" x2="-4.37112e-08" y2="93.5" stroke="url(#paint0_linear_2008_81)" stroke-opacity="0.7"/>
<line x1="98" y1="10.5" y2="10.5" stroke="url(#paint1_linear_2008_81)" stroke-opacity="0.7"/>
<line x1="88.5" y1="2.18557e-08" x2="88.5" y2="20" stroke="url(#paint2_linear_2008_81)" stroke-opacity="0.7"/>
<rect x="19.5049" y="37.8574" width="40" height="40" rx="5" transform="rotate(-15 19.5049 37.8574)" fill="white"/>
<rect x="20.1173" y="38.211" width="39" height="39" rx="4.5" transform="rotate(-15 20.1173 38.211)" stroke="url(#paint3_linear_2008_81)" stroke-opacity="0.6"/>
<g clip-path="url(#clip0_2008_81)">
<path d="M46.0044 58.6657C45.9545 58.639 43.9785 57.5547 42.4668 55.6466L43.7425 55.3048L43.3742 54.7564L42.069 55.1061C41.6031 54.4247 41.2089 53.6588 40.9813 52.8094C40.7537 51.96 40.7122 51.1001 40.7761 50.2762L45.9233 48.897C46.184 49.2781 46.4238 49.683 46.6224 50.1176L47.3262 50.1652C47.118 49.649 46.8555 49.1713 46.5669 48.7245L49.5329 47.9298C50.0278 48.6008 50.4127 49.3686 50.6411 50.221C50.6565 50.2784 50.6647 50.3357 50.6781 50.3929L51.3253 50.4369C51.2986 50.3108 51.2779 50.185 51.2442 50.0594C50.1739 46.0647 46.0534 43.6857 42.0587 44.7561C38.0639 45.8265 35.685 49.947 36.7554 53.9417C37.8257 57.9364 41.9462 60.3154 45.9409 59.245C46.0671 59.2112 46.1863 59.1657 46.309 59.1263L46.0068 58.6651L46.0038 58.6659L46.0044 58.6657ZM40.8504 49.6092C41.1333 47.6971 41.9239 46.0934 42.2547 45.4878C42.8435 45.8477 44.3268 46.8433 45.5249 48.3567L40.8504 49.6092ZM49.0988 47.399L46.1878 48.1791C45.1143 46.7423 43.7803 45.7312 42.9805 45.2047C45.3029 44.8548 47.5871 45.7297 49.0988 47.399ZM41.484 45.6057C41.0538 46.4612 40.4025 48.0029 40.19 49.7862L37.2831 50.5651C37.7576 48.3635 39.2978 46.4639 41.484 45.6057ZM37.1732 51.2415L40.1344 50.4481C40.0924 51.2669 40.1493 52.1193 40.3776 52.9711C40.6058 53.823 40.9827 54.5897 41.4285 55.2777L38.4673 56.0712C37.9724 55.4002 37.5875 54.6324 37.3591 53.7799C37.1306 52.9275 37.0801 52.0701 37.1732 51.2415ZM38.9008 56.6021L41.807 55.8234C42.8829 57.262 44.2176 58.271 45.0185 58.7966C42.6961 59.1465 40.4125 58.2715 38.9008 56.6021ZM47.5887 58.7899L48.0284 54.3265L51.674 51.7139L42.4138 51.0849L47.5887 58.7899ZM47.4346 53.9842L47.1375 56.9975L43.6433 51.7952L49.8955 52.2196L47.4346 53.9842Z" fill="#415BE7"/>
</g>
<defs>
<linearGradient id="paint0_linear_2008_81" x1="4.37112e-08" y1="92.5" x2="89" y2="92.5" gradientUnits="userSpaceOnUse">
<stop offset="0.085" stop-color="#415BE7" stop-opacity="0"/>
<stop offset="0.63" stop-color="#415BE7"/>
</linearGradient>
<linearGradient id="paint1_linear_2008_81" x1="0" y1="9.5" x2="98" y2="9.5" gradientUnits="userSpaceOnUse">
<stop offset="0.085" stop-color="#415BE7" stop-opacity="0"/>
<stop offset="0.63" stop-color="#415BE7"/>
</linearGradient>
<linearGradient id="paint2_linear_2008_81" x1="87.5" y1="20" x2="87.5" y2="-2.18557e-08" gradientUnits="userSpaceOnUse">
<stop stop-color="#415BE7"/>
<stop offset="1" stop-color="#415BE7"/>
</linearGradient>
<linearGradient id="paint3_linear_2008_81" x1="39.7113" y1="77.8574" x2="39.2984" y2="37.8574" gradientUnits="userSpaceOnUse">
<stop stop-color="#415BE7"/>
<stop offset="0.93" stop-color="#415BE7" stop-opacity="0.3"/>
</linearGradient>
<clipPath id="clip0_2008_81">
<rect width="15" height="15" fill="white" transform="translate(34.8145 46.6973) rotate(-15)"/>
</clipPath>
</defs>
</svg>
