<svg width="98" height="103" viewBox="0 0 98 103" fill="none" xmlns="http://www.w3.org/2000/svg">
<line x1="98" y1="10.5" y2="10.5" stroke="url(#paint0_linear_2008_84)" stroke-opacity="0.7"/>
<line x1="88.5" y1="2.18557e-08" x2="88.5" y2="20" stroke="url(#paint1_linear_2008_84)" stroke-opacity="0.7"/>
<line y1="-0.5" x2="98" y2="-0.5" transform="matrix(1 0 0 -1 0 93)" stroke="url(#paint2_linear_2008_84)" stroke-opacity="0.7"/>
<line y1="-0.5" x2="20" y2="-0.5" transform="matrix(4.37114e-08 1 1 -4.37114e-08 10 83)" stroke="url(#paint3_linear_2008_84)" stroke-opacity="0.7"/>
<rect x="29.3525" y="28" width="40" height="40" rx="5" transform="rotate(15 29.3525 28)" fill="white"/>
<rect x="29.7061" y="28.6124" width="39" height="39" rx="4.5" transform="rotate(15 29.7061 28.6124)" stroke="url(#paint4_linear_2008_84)" stroke-opacity="0.6"/>
<g clip-path="url(#clip0_2008_84)">
<path d="M45.5104 54.6564C45.4657 54.823 45.2943 54.922 45.1277 54.8773L40.9017 53.745C40.7351 53.7004 40.6361 53.5289 40.6808 53.3623C40.7254 53.1957 40.8969 53.0967 41.0635 53.1413L45.2894 54.2736C45.456 54.3183 45.555 54.4897 45.5104 54.6564ZM51.4723 51.7245L49.693 58.3653C49.2916 59.8631 47.7462 60.7554 46.2484 60.354L37.1928 57.9276C35.695 57.5263 34.8027 55.9808 35.2041 54.483L37.307 46.6348C37.7083 45.1371 39.2538 44.2448 40.7516 44.6461L42.5796 45.1359C42.8126 45.1984 43.0309 45.3157 43.2112 45.476L44.8613 46.9392C44.9694 47.0354 45.1001 47.1054 45.2402 47.1429L49.483 48.2798C50.9808 48.6811 51.8737 50.2268 51.4723 51.7245ZM37.9107 46.7966L37.668 47.7022L50.9278 51.2551C51.0551 50.1931 50.3844 49.1684 49.3218 48.8837L45.079 47.7468C44.846 47.6843 44.6277 47.567 44.4474 47.4067L42.7974 45.9436C42.6892 45.8473 42.5585 45.7773 42.4184 45.7398L40.5904 45.25C39.4253 44.9378 38.2235 45.6316 37.9113 46.7968L37.9107 46.7966ZM49.0893 58.2035L50.7878 51.8646L37.5063 48.3059L35.8078 54.6448C35.4956 55.8099 36.1894 57.0117 37.3546 57.3239L46.4101 59.7503C47.5753 60.0625 48.7771 59.3687 49.0893 58.2035Z" fill="#415BE7"/>
</g>
<defs>
<linearGradient id="paint0_linear_2008_84" x1="0" y1="9.5" x2="98" y2="9.5" gradientUnits="userSpaceOnUse">
<stop offset="0.085" stop-color="#415BE7" stop-opacity="0"/>
<stop offset="0.63" stop-color="#415BE7"/>
</linearGradient>
<linearGradient id="paint1_linear_2008_84" x1="87.5" y1="20" x2="87.5" y2="-2.18557e-08" gradientUnits="userSpaceOnUse">
<stop stop-color="#415BE7"/>
<stop offset="1" stop-color="#415BE7"/>
</linearGradient>
<linearGradient id="paint2_linear_2008_84" x1="98" y1="0.5" x2="0" y2="0.5" gradientUnits="userSpaceOnUse">
<stop offset="0.085" stop-color="#415BE7" stop-opacity="0"/>
<stop offset="0.63" stop-color="#415BE7"/>
</linearGradient>
<linearGradient id="paint3_linear_2008_84" x1="20" y1="0.5" x2="0" y2="0.5" gradientUnits="userSpaceOnUse">
<stop stop-color="#415BE7"/>
<stop offset="1" stop-color="#415BE7"/>
</linearGradient>
<linearGradient id="paint4_linear_2008_84" x1="49.4216" y1="68" x2="49.2835" y2="28" gradientUnits="userSpaceOnUse">
<stop stop-color="#415BE7"/>
<stop offset="0.93" stop-color="#415BE7" stop-opacity="0.3"/>
</linearGradient>
<clipPath id="clip0_2008_84">
<rect width="15" height="15" fill="white" transform="translate(38.1968 43.3145) rotate(15)"/>
</clipPath>
</defs>
</svg>
