<svg width="58" height="58" viewBox="0 0 58 58" fill="none" xmlns="http://www.w3.org/2000/svg">
<path fill-rule="evenodd" clip-rule="evenodd" d="M9.0625 0H48.9375C53.9426 0 58 4.05742 58 9.0625V48.9375C58 53.9426 53.9426 58 48.9375 58H9.0625C4.05742 58 0 53.9426 0 48.9375V9.0625C0 4.05742 4.05742 0 9.0625 0ZM30.254 21.7634C27.6567 22.8437 22.4657 25.0797 14.6811 28.4713C13.417 28.974 12.7548 29.4657 12.6945 29.9466C12.5926 30.7593 13.6103 31.0793 14.9961 31.515C15.1847 31.5743 15.38 31.6357 15.5802 31.7008C16.9436 32.144 18.7777 32.6625 19.7312 32.6831C20.596 32.7018 21.5613 32.3452 22.6271 31.6134C29.9005 26.7037 33.655 24.2221 33.8907 24.1686C34.057 24.1308 34.2875 24.0834 34.4436 24.2221C34.5998 24.3609 34.5844 24.6237 34.5679 24.6943C34.4671 25.124 30.4723 28.8379 28.405 30.7599C27.7605 31.3591 27.3034 31.7841 27.2099 31.8811C27.0006 32.0986 26.7872 32.3042 26.5821 32.5019C25.3155 33.723 24.3656 34.6387 26.6347 36.134C27.7252 36.8526 28.5978 37.4468 29.4683 38.0397C30.419 38.6871 31.3672 39.3328 32.5941 40.137C32.9066 40.3419 33.2052 40.5548 33.4959 40.762C34.6023 41.5508 35.5963 42.2594 36.8243 42.1464C37.5378 42.0807 38.2749 41.4098 38.6492 39.4087C39.5339 34.6795 41.2727 24.4327 41.6746 20.2102C41.7098 19.8403 41.6655 19.3668 41.63 19.159C41.5944 18.9512 41.5201 18.655 41.2499 18.4358C40.93 18.1762 40.436 18.1215 40.2151 18.1252C39.2108 18.1431 37.6698 18.6789 30.254 21.7634Z" fill="currentColor"/>
</svg>
