<svg width="44" height="44" viewBox="0 0 44 44" fill="none" xmlns="http://www.w3.org/2000/svg">
<path fill-rule="evenodd" clip-rule="evenodd" d="M6.74603 0.412109H36.4286C40.1543 0.412109 43.1746 3.43241 43.1746 7.15814V36.8407C43.1746 40.5664 40.1543 43.5867 36.4286 43.5867H6.74603C3.0203 43.5867 0 40.5664 0 36.8407V7.15814C0 3.43241 3.0203 0.412109 6.74603 0.412109ZM22.5208 16.6125C20.5873 17.4167 16.7232 19.0811 10.9285 21.6058C9.98748 21.98 9.49455 22.3461 9.44967 22.7041C9.37384 23.309 10.1314 23.5472 11.163 23.8716C11.3033 23.9157 11.4487 23.9614 11.5978 24.0099C12.6127 24.3398 13.9779 24.7258 14.6877 24.7411C15.3315 24.755 16.05 24.4896 16.8433 23.9448C22.2576 20.2901 25.0524 18.4428 25.2279 18.4029C25.3517 18.3748 25.5233 18.3395 25.6395 18.4428C25.7557 18.5461 25.7443 18.7418 25.732 18.7943C25.6569 19.1142 22.6833 21.8788 21.1444 23.3095C20.6646 23.7555 20.3243 24.0718 20.2548 24.1441C20.0989 24.306 19.9401 24.4591 19.7875 24.6062C18.8446 25.5152 18.1375 26.1968 19.8266 27.3099C20.6383 27.8448 21.2879 28.2871 21.9359 28.7284C22.6436 29.2104 23.3494 29.6911 24.2627 30.2897C24.4954 30.4422 24.7176 30.6006 24.934 30.755C25.7576 31.3421 26.4975 31.8696 27.4116 31.7855C27.9428 31.7366 28.4914 31.2371 28.7701 29.7475C29.4286 26.2271 30.723 18.5995 31.0221 15.4564C31.0484 15.181 31.0154 14.8286 30.9889 14.6739C30.9624 14.5192 30.9071 14.2987 30.706 14.1355C30.4678 13.9423 30.1002 13.9015 29.9357 13.9043C29.1881 13.9176 28.041 14.3165 22.5208 16.6125Z" fill="red" fill-opacity="0.8"/>
</svg>
