<svg width="58" height="58" viewBox="0 0 58 58" fill="none" xmlns="http://www.w3.org/2000/svg">
<path fill-rule="evenodd" clip-rule="evenodd" d="M0 9.0625C0 4.05742 4.05742 0 9.0625 0H48.9375C53.9426 0 58 4.05742 58 9.0625V48.9375C58 53.9426 53.9426 58 48.9375 58H9.0625C4.05742 58 0 53.9426 0 48.9375V9.0625ZM16.53 16.53C14.5 18.5793 14.5 21.8563 14.5 28.42V29.58C14.5 36.134 14.5 39.411 16.53 41.47C18.5793 43.5 21.8563 43.5 28.42 43.5H29.58C36.134 43.5 39.411 43.5 41.47 41.47C43.5 39.4207 43.5 36.1437 43.5 29.58V28.42C43.5 21.866 43.5 18.589 41.47 16.53C39.4207 14.5 36.1437 14.5 29.58 14.5H28.42C21.866 14.5 18.589 14.5 16.53 16.53Z" fill="currentColor"/>
<path d="M29.928 35.3896C23.316 35.3896 19.546 30.8656 19.3913 23.3256H22.7167C22.823 28.855 25.259 31.1943 27.1923 31.6776V23.3256H30.3147V28.0913C32.219 27.8883 34.2297 25.7133 34.9063 23.316H38.019C37.7652 24.5569 37.2582 25.7322 36.5297 26.7684C35.8012 27.8046 34.8669 28.6795 33.785 29.3383C34.9923 29.9392 36.0585 30.7892 36.9133 31.8323C37.7681 32.8754 38.392 34.0878 38.744 35.3896H35.3123C34.5777 33.0986 32.741 31.32 30.3147 31.0783V35.3896H29.928Z" fill="currentColor"/>
</svg>
