<svg width="58" height="58" viewBox="0 0 58 58" fill="none" xmlns="http://www.w3.org/2000/svg">
<path fill-rule="evenodd" clip-rule="evenodd" d="M22.8375 39.3312C24.65 40.4188 26.825 40.9625 29 40.9625C35.7062 40.9625 40.9625 35.525 40.9625 29.1812C40.9625 25.9188 39.875 23.0187 37.5188 20.6625C35.1625 18.4875 32.2625 17.2188 29 17.2188C22.475 17.2188 17.0375 22.6562 17.0375 29.1812C17.0375 31.3563 17.5812 33.5312 18.85 35.525L19.2125 36.0688L17.9437 40.4188L22.475 39.15L22.8375 39.3312ZM32.9875 30.8125C33.35 30.8125 35.1625 31.7188 35.525 31.9C35.5815 31.9282 35.6379 31.952 35.6937 31.9756C35.996 32.1032 36.2782 32.2224 36.4313 32.9875C36.6125 32.9875 36.6125 33.7125 36.25 34.6187C36.0688 35.3438 34.6188 36.25 33.8938 36.25C33.7709 36.25 33.6533 36.2604 33.5277 36.2715C32.9117 36.326 32.1029 36.3975 29.5437 35.3438C26.3674 34.0732 24.1652 30.9936 23.5468 30.1288C23.4594 30.0066 23.4037 29.9287 23.3812 29.9062C23.3504 29.8445 23.288 29.746 23.2057 29.6161C22.8047 28.983 21.9313 27.6039 21.9313 26.1C21.9313 24.2875 22.8375 23.3813 23.2 23.0187C23.5625 22.6562 23.925 22.6562 24.1062 22.6562H24.8313C25.0125 22.6562 25.375 22.6562 25.5563 23.2C25.9188 23.925 26.6438 25.7375 26.6438 25.9188C26.6438 25.9792 26.6639 26.0396 26.684 26.1C26.7243 26.2208 26.7646 26.3417 26.6438 26.4625C26.5531 26.5531 26.5078 26.6437 26.4625 26.7344C26.4172 26.825 26.3719 26.9156 26.2812 27.0063L25.7375 27.55C25.5563 27.7313 25.375 27.9125 25.5563 28.275C25.7375 28.6375 26.4625 29.9062 27.55 30.8125C28.7737 31.8832 29.7391 32.3085 30.2286 32.5241C30.3191 32.564 30.3934 32.5967 30.45 32.625C30.8125 32.625 30.9938 32.625 31.175 32.4438C31.2657 32.2625 31.4922 31.9906 31.7188 31.7188C31.9453 31.4469 32.1718 31.175 32.2625 30.9937C32.4437 30.6313 32.625 30.6313 32.9875 30.8125Z" fill="currentColor"/>
<path fill-rule="evenodd" clip-rule="evenodd" d="M0 9.0625C0 4.05742 4.05742 0 9.0625 0H48.9375C53.9426 0 58 4.05742 58 9.0625V48.9375C58 53.9426 53.9426 58 48.9375 58H9.0625C4.05742 58 0 53.9426 0 48.9375V9.0625ZM29 14.5C32.8062 14.5 36.4313 15.95 39.15 18.6688C41.8688 21.3875 43.5 25.0125 43.5 28.8188C43.5 36.7938 36.975 43.3188 29 43.3188C26.6437 43.3188 24.2875 42.5938 22.1125 41.5063L14.5 43.5L16.4938 36.25C15.225 34.075 14.5 31.5375 14.5 29C14.5 21.025 21.025 14.5 29 14.5Z" fill="currentColor"/>
</svg>
