<svg xmlns="http://www.w3.org/2000/svg" width="40" height="40" viewBox="0 0 40 40" fill="none">
<circle cx="20" cy="20" r="19.5" fill="white" stroke="#415be7"/>
<path d="M22.3717 16.5355C22.5383 16.6104 22.7215 16.6604 22.913 16.6604C23.6042 16.6604 24.1622 16.1024 24.1622 15.4112C24.1622 14.72 23.6042 14.1621 22.913 14.1621C22.2218 14.1621 21.6639 14.72 21.6639 15.4112C21.6639 15.6028 21.7055 15.786 21.7888 15.9525L21.2058 16.5355C20.7478 16.1774 20.1899 15.9359 19.5819 15.8609V14.1704H18.7491V15.8609C18.1412 15.9359 17.5833 16.1774 17.1252 16.5355L16.5423 15.9525C16.6172 15.786 16.6672 15.6028 16.6672 15.4112C16.6672 14.72 16.1092 14.1621 15.418 14.1621C14.7268 14.1621 14.1689 14.72 14.1689 15.4112C14.1689 16.1024 14.7268 16.6604 15.418 16.6604C15.6096 16.6604 15.7928 16.6188 15.9593 16.5355L16.5423 17.1184C16.1842 17.5765 15.9427 18.1344 15.8677 18.7423H14.1772V19.5751H15.8677C15.9427 20.1831 16.1842 20.741 16.5423 21.199L15.9593 21.782C15.7928 21.707 15.6096 21.6571 15.418 21.6571C14.7268 21.6571 14.1689 22.215 14.1689 22.9062C14.1689 23.5975 14.7268 24.1554 15.418 24.1554C16.1092 24.1554 16.6672 23.5975 16.6672 22.9062C16.6672 22.7147 16.6256 22.5315 16.5423 22.3649L17.1252 21.782C17.5833 22.1401 18.1412 22.3816 18.7491 22.4565V24.1471H19.5819V22.4565C20.1899 22.3816 20.7478 22.1401 21.2058 21.782L21.7888 22.3649C21.7138 22.5315 21.6639 22.7147 21.6639 22.9062C21.6639 23.5975 22.2218 24.1554 22.913 24.1554C23.6042 24.1554 24.1622 23.5975 24.1622 22.9062C24.1622 22.215 23.6042 21.6571 22.913 21.6571C22.7215 21.6571 22.5383 21.6987 22.3717 21.782L21.7888 21.199C22.1469 20.741 22.3884 20.1831 22.4633 19.5751H24.1539V18.7423H22.4633C22.3884 18.1344 22.1469 17.5765 21.7888 17.1184L22.3717 16.5355ZM22.913 14.9948C23.1462 14.9948 23.3294 15.178 23.3294 15.4112C23.3294 15.6444 23.1462 15.8276 22.913 15.8276C22.6799 15.8276 22.4967 15.6444 22.4967 15.4112C22.4967 15.178 22.6799 14.9948 22.913 14.9948ZM21.6639 19.1587C21.6639 20.5328 20.5396 21.6571 19.1655 21.6571C17.7914 21.6571 16.6672 20.5328 16.6672 19.1587C16.6672 17.7847 17.7914 16.6604 19.1655 16.6604C20.5396 16.6604 21.6639 17.7847 21.6639 19.1587ZM15.418 15.8276C15.1848 15.8276 15.0016 15.6444 15.0016 15.4112C15.0016 15.178 15.1848 14.9948 15.418 14.9948C15.6512 14.9948 15.8344 15.178 15.8344 15.4112C15.8344 15.6444 15.6512 15.8276 15.418 15.8276ZM15.418 23.3226C15.1848 23.3226 15.0016 23.1394 15.0016 22.9062C15.0016 22.6731 15.1848 22.4899 15.418 22.4899C15.6512 22.4899 15.8344 22.6731 15.8344 22.9062C15.8344 23.1394 15.6512 23.3226 15.418 23.3226ZM22.913 22.4899C23.1462 22.4899 23.3294 22.6731 23.3294 22.9062C23.3294 23.1394 23.1462 23.3226 22.913 23.3226C22.6799 23.3226 22.4967 23.1394 22.4967 22.9062C22.4967 22.6731 22.6799 22.4899 22.913 22.4899ZM29.0423 18.9256C28.1512 16.7853 27.3101 14.7533 26.4274 13.6624C24.2538 10.7643 20.6895 9.44852 17.1086 10.2147C13.4527 11.0058 10.7045 13.9206 10.1215 17.6514C9.69682 20.3746 10.3964 23.0728 12.0453 25.0631C12.3451 25.4212 12.5116 25.8876 12.5116 26.3623V29.9849H23.3378V27.4865H25.3031C26.2941 27.4865 27.1519 26.7787 27.3434 25.8127L28.0013 22.4899H30V21.2407C30 21.2407 29.3588 19.6584 29.0506 18.9256H29.0423ZM29.1589 21.6571H27.3101L26.519 25.6461C26.4024 26.229 25.8861 26.6538 25.2948 26.6538H22.4967V29.1521H13.3361V26.3623C13.3361 25.6877 13.1029 25.0382 12.6782 24.5302C11.1875 22.723 10.5546 20.2663 10.946 17.7763C11.479 14.3952 13.969 11.747 17.2834 11.0308C20.5396 10.3313 23.7875 11.5305 25.7695 14.1787C26.5856 15.1864 27.4434 17.2517 28.2761 19.2503C28.5676 19.9582 28.8674 20.6661 29.1589 21.3323V21.6571Z" fill="#415BE7"/>
</svg>
