<svg width="40" height="40" viewBox="0 0 40 40" fill="none" xmlns="http://www.w3.org/2000/svg">
<circle cx="20" cy="20" r="20" fill="white" stroke="#415be7"/>
<path d="M30 12.9167C30 11.3083 28.6917 10 27.0833 10C25.475 10 24.1667 11.3083 24.1667 12.9167C24.1667 14.3833 25.255 15.6008 26.6667 15.8033V17.9167C26.6667 18.6058 26.1058 19.1667 25.4167 19.1667H21.6667C20.9858 19.1667 20.38 19.495 20 20.0017C19.62 19.495 19.0142 19.1667 18.3333 19.1667H14.5833C13.8942 19.1667 13.3333 18.6058 13.3333 17.9167V15.8033C14.745 15.6008 15.8333 14.3833 15.8333 12.9167C15.8333 11.3083 14.525 10 12.9167 10C11.3083 10 10 11.3083 10 12.9167C10 14.3833 11.0883 15.6008 12.5 15.8033V17.9167C12.5 19.065 13.435 20 14.5833 20H18.3333C19.0225 20 19.5833 20.5608 19.5833 21.25V24.1967C18.1717 24.3992 17.0833 25.6167 17.0833 27.0833C17.0833 28.6917 18.3917 30 20 30C21.6083 30 22.9167 28.6917 22.9167 27.0833C22.9167 25.6167 21.8283 24.3992 20.4167 24.1967V21.25C20.4167 20.5608 20.9775 20 21.6667 20H25.4167C26.5658 20 27.5 19.065 27.5 17.9167V15.8033C28.9117 15.6008 30 14.3833 30 12.9167ZM10.8333 12.9167C10.8333 11.7683 11.7683 10.8333 12.9167 10.8333C14.065 10.8333 15 11.7683 15 12.9167C15 14.065 14.065 15 12.9167 15C11.7683 15 10.8333 14.065 10.8333 12.9167ZM22.0833 27.0833C22.0833 28.2317 21.1492 29.1667 20 29.1667C18.8508 29.1667 17.9167 28.2317 17.9167 27.0833C17.9167 25.935 18.8517 25 20 25C21.1483 25 22.0833 25.935 22.0833 27.0833ZM27.0833 15C25.9342 15 25 14.065 25 12.9167C25 11.7683 25.9342 10.8333 27.0833 10.8333C28.2325 10.8333 29.1667 11.7683 29.1667 12.9167C29.1667 14.065 28.2325 15 27.0833 15Z" fill="#415BE7"/>
</svg>
