<svg width="40" height="40" viewBox="0 0 40 40" fill="none" xmlns="http://www.w3.org/2000/svg">
<circle cx="20" cy="20" r="19.5" fill="white" stroke="#415be7"/>
<path d="M27.9167 13.3333H25V11.25C25 10.5608 24.4392 10 23.75 10H16.25C15.5608 10 15 10.5608 15 11.25V13.3333H12.0833C10.9342 13.3333 10 14.2683 10 15.4167V30H30V15.4167C30 14.2683 29.0658 13.3333 27.9167 13.3333ZM15.8333 11.25C15.8333 11.02 16.0208 10.8333 16.25 10.8333H23.75C23.9792 10.8333 24.1667 11.02 24.1667 11.25V13.3333H15.8333V11.25ZM12.0833 14.1667H27.9167C28.6058 14.1667 29.1667 14.7275 29.1667 15.4167V18.3333H25.8333V16.6667H25V18.3333H15V16.6667H14.1667V18.3333H10.8333V15.4167C10.8333 14.7275 11.3942 14.1667 12.0833 14.1667ZM10.8333 29.1667V19.1667H14.1667V20.8333H15V19.1667H25V20.8333H25.8333V19.1667H29.1667V29.1667H10.8333Z" fill="#415BE7"/>
</svg>
