<svg width="40" height="40" viewBox="0 0 40 40" fill="none" xmlns="http://www.w3.org/2000/svg">
<circle cx="20" cy="20" r="19.5" fill="white" stroke="#415be7"/>
<path d="M30 30H20C14.4858 30 10 25.5142 10 20C10 14.4858 14.4858 10 20 10C25.5142 10 30 14.4858 30 20V30ZM20 10.8333C14.9458 10.8333 10.8333 14.9458 10.8333 20C10.8333 25.0542 14.9458 29.1667 20 29.1667H29.1667V20C29.1667 14.9458 25.0542 10.8333 20 10.8333ZM18.3133 23.4817L15.1258 20.2942C14.9633 20.1317 14.9633 19.8675 15.1258 19.705L18.3133 16.5175L17.7242 15.9283L14.5367 19.1158C14.0492 19.6033 14.0492 20.3958 14.5367 20.8833L17.7242 24.0708L18.3133 23.4817ZM25.4675 20.8833C25.955 20.3958 25.955 19.6033 25.4675 19.1158L22.28 15.9283L21.6908 16.5175L24.8783 19.705C25.0408 19.8675 25.0408 20.1317 24.8783 20.2942L21.6908 23.4817L22.28 24.0708L25.4675 20.8833Z" fill="#415BE7"/>
</svg>
