<svg width="40" height="40" viewBox="0 0 40 40" fill="none" xmlns="http://www.w3.org/2000/svg">
<circle cx="20" cy="20" r="19.5" fill="white" stroke="#415be7"/>
<path d="M20.8903 12.9197C21.7562 12.1038 23.1137 11.9055 24.1737 12.4372L26.8953 13.798H29.4937V12.9647H27.092L24.5462 11.6922C23.182 11.0088 21.4353 11.2622 20.3178 12.3138L19.5253 13.0655L18.6545 12.2713C17.9653 11.6447 17.0728 11.2988 16.1095 11.2988C15.532 11.2988 14.9545 11.4347 14.4403 11.693L11.8945 12.9655H9.49365V13.7988H12.092L14.8137 12.438C15.817 11.9347 17.2045 12.0788 18.0937 12.8872L18.9203 13.6405L15.9878 16.4205C15.237 17.1705 15.112 18.3505 15.6987 19.1647C16.0612 19.668 16.6737 20.0405 17.3978 20.0405C17.9478 20.0405 18.477 19.823 18.8645 19.4355L20.3678 17.9872L26.3745 22.4922L19.4937 27.658L12.1328 22.1313H9.49365V22.9647H11.8545L19.4937 28.6997L27.1328 22.9647H29.4937V22.1313H27.2828L20.9762 17.4013L22.732 15.7105L22.1545 15.1097L18.2812 18.8405C18.0212 19.1005 17.6587 19.228 17.2953 19.203C16.9237 19.173 16.597 18.9863 16.3753 18.678C16.0253 18.1913 16.112 17.4747 16.5687 17.018L20.8903 12.9197Z" fill="#415BE7"/>
</svg>
