<svg width="40" height="40" viewBox="0 0 40 40" fill="none" xmlns="http://www.w3.org/2000/svg">
<circle cx="20" cy="20" r="19.5" fill="white" stroke="#415be7"/>
<g clip-path="url(#clip0_0_1)">
<path d="M20 10.834C14.4858 10.834 10 15.3198 10 20.834C10 24.094 11.6233 27.1807 14.3442 29.0915L14.4517 29.1673H25.5483L25.6558 29.0915C28.3767 27.1807 30 24.094 30 20.834C30 15.3198 25.5142 10.834 20 10.834ZM25.2833 28.334H14.7167C12.3183 26.5973 10.8333 23.7348 10.8333 20.834C10.8333 15.7798 14.9458 11.6673 20 11.6673C25.0542 11.6673 29.1667 15.7798 29.1667 20.834C29.1667 23.7348 27.6817 26.5973 25.2833 28.334ZM20 19.1673C19.6917 19.1673 19.4025 19.2523 19.1542 19.399L15.615 15.8598L15.0258 16.449L18.565 19.9882C18.4183 20.2365 18.3333 20.5257 18.3333 20.834C18.3333 21.7532 19.0808 22.5007 20 22.5007C20.9192 22.5007 21.6667 21.7532 21.6667 20.834C21.6667 19.9148 20.9192 19.1673 20 19.1673ZM20 21.6673C19.54 21.6673 19.1667 21.294 19.1667 20.834C19.1667 20.374 19.54 20.0007 20 20.0007C20.46 20.0007 20.8333 20.374 20.8333 20.834C20.8333 21.294 20.46 21.6673 20 21.6673ZM24.7142 25.5482L24.125 24.959C26.3992 22.6848 26.3992 18.9832 24.125 16.709C22.3692 14.9548 19.7675 14.5598 17.6242 15.5132L16.9975 14.8865C19.4975 13.6273 22.6292 14.0357 24.7142 16.1207C27.3125 18.7198 27.3125 22.9498 24.7142 25.549V25.5482ZM15.875 24.959L15.2858 25.5482C13.2017 23.464 12.7933 20.3315 14.0525 17.8315L14.6792 18.4582C13.7258 20.6015 14.1208 23.2032 15.875 24.959Z" fill="#415BE7"/>
</g>
<defs>
<clipPath id="clip0_0_1">
<rect width="20" height="20" fill="white" transform="translate(10 10)"/>
</clipPath>
</defs>
</svg>
