<svg width="401" height="181" viewBox="0 0 401 181" fill="none" xmlns="http://www.w3.org/2000/svg">
<line x1="62.8572" y1="95.2187" x2="62.8572" y2="139.589" stroke="#415BE7" stroke-opacity="0.6" stroke-width="1.47899" stroke-dasharray="1.48 2.96"/>
<line x1="343.126" y1="50.8477" x2="343.126" y2="139.587" stroke="#415BE7" stroke-opacity="0.6" stroke-width="1.47899" stroke-dasharray="1.48 2.96"/>
<line x1="264" y1="41.9746" x2="264" y2="139.588" stroke="#415BE7" stroke-opacity="0.6" stroke-width="1.47899" stroke-dasharray="1.48 2.96"/>
<line x1="126.454" y1="59.7229" x2="126.454" y2="139.588" stroke="#415BE7" stroke-opacity="0.6" stroke-width="1.47899" stroke-dasharray="1.48 2.96"/>
<rect x="48.0671" y="137.37" width="309.109" height="42.8908" rx="21.4454" fill="white" stroke="#E7E7EF" stroke-width="1.47899"/>
<path d="M96.2353 165.463V152.862H105.748V165.463H104.506V153.962H97.4777V165.463H96.2353ZM112.597 165.64C111.934 165.64 111.319 165.516 110.751 165.268C110.195 165.007 109.71 164.658 109.295 164.221C108.893 163.771 108.58 163.262 108.355 162.694C108.13 162.114 108.018 161.505 108.018 160.866C108.018 160.204 108.13 159.588 108.355 159.02C108.58 158.441 108.899 157.932 109.313 157.494C109.727 157.044 110.212 156.695 110.768 156.447C111.336 156.187 111.952 156.057 112.614 156.057C113.277 156.057 113.886 156.187 114.442 156.447C114.998 156.695 115.484 157.044 115.898 157.494C116.312 157.932 116.631 158.441 116.856 159.02C117.081 159.588 117.193 160.204 117.193 160.866C117.193 161.505 117.081 162.114 116.856 162.694C116.631 163.262 116.312 163.771 115.898 164.221C115.495 164.658 115.01 165.007 114.442 165.268C113.886 165.516 113.271 165.64 112.597 165.64ZM109.242 160.884C109.242 161.57 109.39 162.197 109.686 162.765C109.994 163.321 110.402 163.765 110.91 164.096C111.419 164.416 111.981 164.575 112.597 164.575C113.212 164.575 113.774 164.41 114.283 164.079C114.791 163.747 115.2 163.298 115.507 162.73C115.815 162.15 115.969 161.523 115.969 160.848C115.969 160.162 115.815 159.535 115.507 158.967C115.2 158.399 114.791 157.95 114.283 157.618C113.774 157.287 113.212 157.121 112.597 157.121C111.981 157.121 111.419 157.293 110.91 157.636C110.414 157.979 110.011 158.435 109.704 159.003C109.396 159.559 109.242 160.186 109.242 160.884ZM119.194 165.463V156.234H120.401V163.83L126.027 156.216H127.109V165.463H125.903V157.991L120.365 165.463H119.194ZM133.76 165.64C133.086 165.64 132.465 165.516 131.897 165.268C131.341 165.007 130.85 164.652 130.424 164.203C130.01 163.753 129.684 163.238 129.448 162.659C129.223 162.079 129.111 161.464 129.111 160.813C129.111 159.937 129.306 159.139 129.696 158.417C130.087 157.695 130.631 157.121 131.329 156.695C132.027 156.269 132.832 156.057 133.743 156.057C134.606 156.057 135.37 156.258 136.032 156.66C136.695 157.05 137.186 157.583 137.505 158.257L136.334 158.63C136.074 158.157 135.707 157.79 135.234 157.53C134.772 157.257 134.257 157.121 133.689 157.121C133.074 157.121 132.512 157.281 132.003 157.601C131.495 157.92 131.086 158.358 130.779 158.914C130.483 159.47 130.335 160.103 130.335 160.813C130.335 161.511 130.489 162.144 130.797 162.712C131.104 163.28 131.512 163.735 132.021 164.079C132.53 164.41 133.092 164.575 133.707 164.575C134.11 164.575 134.494 164.505 134.861 164.363C135.239 164.221 135.565 164.031 135.837 163.795C136.121 163.546 136.31 163.28 136.405 162.996L137.594 163.351C137.428 163.789 137.15 164.185 136.76 164.54C136.381 164.883 135.932 165.155 135.411 165.356C134.902 165.546 134.352 165.64 133.76 165.64ZM139.472 165.463V156.216H140.679V160.174H142.063L145.169 156.216H146.554L143.022 160.706L146.997 165.463H145.578L142.063 161.292H140.679V165.463H139.472ZM152.165 165.64C151.503 165.64 150.887 165.516 150.32 165.268C149.763 165.007 149.278 164.658 148.864 164.221C148.462 163.771 148.148 163.262 147.924 162.694C147.699 162.114 147.586 161.505 147.586 160.866C147.586 160.204 147.699 159.588 147.924 159.02C148.148 158.441 148.468 157.932 148.882 157.494C149.296 157.044 149.781 156.695 150.337 156.447C150.905 156.187 151.52 156.057 152.183 156.057C152.846 156.057 153.455 156.187 154.011 156.447C154.567 156.695 155.052 157.044 155.466 157.494C155.881 157.932 156.2 158.441 156.425 159.02C156.65 159.588 156.762 160.204 156.762 160.866C156.762 161.505 156.65 162.114 156.425 162.694C156.2 163.262 155.881 163.771 155.466 164.221C155.064 164.658 154.579 165.007 154.011 165.268C153.455 165.516 152.84 165.64 152.165 165.64ZM148.811 160.884C148.811 161.57 148.959 162.197 149.255 162.765C149.562 163.321 149.971 163.765 150.479 164.096C150.988 164.416 151.55 164.575 152.165 164.575C152.781 164.575 153.343 164.41 153.851 164.079C154.36 163.747 154.768 163.298 155.076 162.73C155.384 162.15 155.537 161.523 155.537 160.848C155.537 160.162 155.384 159.535 155.076 158.967C154.768 158.399 154.36 157.95 153.851 157.618C153.343 157.287 152.781 157.121 152.165 157.121C151.55 157.121 150.988 157.293 150.479 157.636C149.982 157.979 149.58 158.435 149.272 159.003C148.965 159.559 148.811 160.186 148.811 160.884ZM158.763 165.463V156.216H163.377C163.898 156.216 164.336 156.329 164.69 156.553C165.045 156.766 165.312 157.044 165.489 157.388C165.678 157.731 165.773 158.098 165.773 158.488C165.773 158.985 165.655 159.435 165.418 159.837C165.182 160.227 164.838 160.523 164.389 160.724C164.921 160.878 165.353 161.156 165.684 161.558C166.016 161.961 166.181 162.446 166.181 163.014C166.181 163.511 166.057 163.942 165.809 164.309C165.572 164.676 165.241 164.96 164.815 165.161C164.401 165.362 163.921 165.463 163.377 165.463H158.763ZM159.916 164.593H163.342C163.649 164.593 163.927 164.516 164.176 164.363C164.436 164.197 164.637 163.984 164.779 163.724C164.933 163.463 165.01 163.191 165.01 162.907C165.01 162.6 164.939 162.322 164.797 162.073C164.655 161.813 164.466 161.606 164.229 161.452C163.992 161.298 163.72 161.221 163.413 161.221H159.916V164.593ZM159.916 160.387H163.058C163.365 160.387 163.637 160.304 163.874 160.139C164.111 159.973 164.294 159.76 164.424 159.5C164.554 159.239 164.619 158.967 164.619 158.683C164.619 158.257 164.478 157.885 164.194 157.565C163.921 157.246 163.566 157.086 163.129 157.086H159.916V160.387ZM168.261 165.463V156.216H169.467V159.482H171.562C172.615 159.482 173.407 159.754 173.94 160.298C174.484 160.831 174.756 161.535 174.756 162.41C174.756 162.978 174.638 163.493 174.401 163.954C174.165 164.416 173.816 164.783 173.354 165.055C172.905 165.327 172.337 165.463 171.65 165.463H168.261ZM169.467 164.505H171.491C171.976 164.505 172.366 164.41 172.662 164.221C172.958 164.019 173.177 163.765 173.319 163.457C173.461 163.138 173.532 162.795 173.532 162.428C173.532 162.073 173.467 161.748 173.336 161.452C173.218 161.144 173.005 160.902 172.698 160.724C172.402 160.535 171.988 160.44 171.455 160.44H169.467V164.505ZM176.442 165.463V156.234H177.649V165.463H176.442ZM180.289 165.463V156.234H181.496V163.83L187.122 156.216H188.205V165.463H186.998V157.991L181.46 165.463H180.289ZM184.264 155.045C183.46 155.045 182.839 154.856 182.401 154.477C181.963 154.098 181.744 153.619 181.744 153.039H182.632C182.632 153.394 182.762 153.69 183.022 153.927C183.294 154.163 183.708 154.282 184.264 154.282C184.809 154.282 185.205 154.169 185.454 153.945C185.714 153.72 185.862 153.418 185.897 153.039H186.767C186.767 153.619 186.548 154.098 186.11 154.477C185.672 154.856 185.057 155.045 184.264 155.045ZM198.048 165.569C197.196 165.569 196.469 165.41 195.865 165.09C195.262 164.759 194.8 164.297 194.481 163.706L195.475 163.262C195.699 163.676 196.025 164.002 196.451 164.238C196.877 164.463 197.391 164.575 197.995 164.575C198.717 164.575 199.29 164.41 199.716 164.079C200.154 163.747 200.373 163.304 200.373 162.747C200.373 162.239 200.201 161.83 199.858 161.523C199.515 161.215 199.042 161.055 198.439 161.044H197.498V160.21H198.51C198.77 160.21 199.006 160.139 199.219 159.997C199.432 159.855 199.598 159.665 199.716 159.429C199.835 159.192 199.894 158.926 199.894 158.63C199.894 158.169 199.728 157.796 199.397 157.512C199.077 157.228 198.604 157.086 197.977 157.086C197.456 157.086 197.019 157.192 196.664 157.405C196.321 157.606 196.043 157.908 195.83 158.31L194.907 157.814C195.179 157.269 195.581 156.843 196.114 156.536C196.658 156.228 197.291 156.074 198.013 156.074C198.604 156.074 199.119 156.175 199.557 156.376C200.006 156.565 200.355 156.843 200.604 157.21C200.864 157.565 200.994 157.997 200.994 158.506C200.994 158.943 200.888 159.352 200.675 159.73C200.462 160.097 200.166 160.375 199.787 160.564C200.332 160.73 200.752 161.02 201.047 161.434C201.355 161.848 201.509 162.333 201.509 162.889C201.509 163.446 201.361 163.925 201.065 164.327C200.769 164.729 200.361 165.037 199.841 165.25C199.32 165.463 198.723 165.569 198.048 165.569ZM202.786 162.801C202.786 162.221 202.952 161.724 203.283 161.31C203.614 160.884 204.07 160.559 204.65 160.334C205.241 160.097 205.922 159.979 206.691 159.979C207.14 159.979 207.608 160.014 208.093 160.085C208.578 160.156 209.01 160.263 209.388 160.405V159.624C209.388 158.843 209.158 158.222 208.696 157.76C208.235 157.299 207.596 157.068 206.779 157.068C206.282 157.068 205.791 157.163 205.306 157.352C204.833 157.53 204.336 157.796 203.815 158.151L203.354 157.299C203.957 156.885 204.549 156.577 205.129 156.376C205.709 156.163 206.3 156.057 206.904 156.057C208.039 156.057 208.939 156.382 209.601 157.033C210.264 157.683 210.595 158.583 210.595 159.73V164.008C210.595 164.173 210.631 164.297 210.702 164.38C210.773 164.451 210.885 164.493 211.039 164.505V165.463C210.909 165.475 210.796 165.487 210.702 165.498C210.607 165.51 210.536 165.51 210.489 165.498C210.193 165.487 209.968 165.392 209.814 165.214C209.66 165.037 209.578 164.848 209.566 164.646L209.548 163.972C209.134 164.505 208.596 164.919 207.933 165.214C207.27 165.498 206.596 165.64 205.91 165.64C205.318 165.64 204.78 165.516 204.295 165.268C203.821 165.007 203.449 164.664 203.177 164.238C202.916 163.801 202.786 163.321 202.786 162.801ZM208.98 163.511C209.11 163.345 209.211 163.185 209.282 163.031C209.353 162.878 209.388 162.742 209.388 162.623V161.274C208.986 161.121 208.566 161.002 208.128 160.919C207.702 160.837 207.27 160.795 206.833 160.795C205.969 160.795 205.271 160.967 204.738 161.31C204.206 161.653 203.94 162.12 203.94 162.712C203.94 163.055 204.028 163.38 204.206 163.688C204.383 163.984 204.644 164.232 204.987 164.434C205.33 164.623 205.732 164.717 206.194 164.717C206.773 164.717 207.312 164.605 207.809 164.38C208.318 164.155 208.708 163.866 208.98 163.511ZM213.185 165.463V156.216H220.621V165.463H219.414V157.299H214.392V165.463H213.185ZM228.011 165.64C227.242 165.64 226.55 165.439 225.934 165.037C225.331 164.635 224.852 164.138 224.497 163.546V169.243H223.29V156.216H224.373V158.009C224.739 157.429 225.23 156.962 225.846 156.607C226.461 156.24 227.118 156.057 227.816 156.057C228.455 156.057 229.04 156.193 229.573 156.465C230.105 156.725 230.567 157.08 230.957 157.53C231.347 157.979 231.649 158.494 231.862 159.074C232.087 159.642 232.199 160.233 232.199 160.848C232.199 161.712 232.022 162.511 231.667 163.244C231.324 163.966 230.839 164.546 230.212 164.984C229.584 165.421 228.851 165.64 228.011 165.64ZM227.674 164.575C228.182 164.575 228.638 164.475 229.04 164.274C229.442 164.061 229.786 163.777 230.07 163.422C230.365 163.067 230.59 162.671 230.744 162.233C230.898 161.783 230.975 161.322 230.975 160.848C230.975 160.351 230.886 159.878 230.709 159.429C230.543 158.979 230.3 158.583 229.981 158.239C229.661 157.896 229.295 157.624 228.88 157.423C228.466 157.222 228.017 157.121 227.532 157.121C227.224 157.121 226.905 157.181 226.573 157.299C226.242 157.417 225.922 157.589 225.615 157.814C225.319 158.027 225.071 158.269 224.869 158.541C224.668 158.813 224.544 159.103 224.497 159.411V162.251C224.686 162.688 224.94 163.085 225.26 163.44C225.579 163.783 225.946 164.061 226.36 164.274C226.786 164.475 227.224 164.575 227.674 164.575ZM238.184 165.64C237.521 165.64 236.906 165.516 236.338 165.268C235.782 165.007 235.297 164.658 234.883 164.221C234.48 163.771 234.167 163.262 233.942 162.694C233.717 162.114 233.605 161.505 233.605 160.866C233.605 160.204 233.717 159.588 233.942 159.02C234.167 158.441 234.486 157.932 234.9 157.494C235.314 157.044 235.8 156.695 236.356 156.447C236.924 156.187 237.539 156.057 238.201 156.057C238.864 156.057 239.473 156.187 240.029 156.447C240.586 156.695 241.071 157.044 241.485 157.494C241.899 157.932 242.218 158.441 242.443 159.02C242.668 159.588 242.78 160.204 242.78 160.866C242.78 161.505 242.668 162.114 242.443 162.694C242.218 163.262 241.899 163.771 241.485 164.221C241.083 164.658 240.597 165.007 240.029 165.268C239.473 165.516 238.858 165.64 238.184 165.64ZM234.829 160.884C234.829 161.57 234.977 162.197 235.273 162.765C235.581 163.321 235.989 163.765 236.498 164.096C237.006 164.416 237.568 164.575 238.184 164.575C238.799 164.575 239.361 164.41 239.87 164.079C240.379 163.747 240.787 163.298 241.094 162.73C241.402 162.15 241.556 161.523 241.556 160.848C241.556 160.162 241.402 159.535 241.094 158.967C240.787 158.399 240.379 157.95 239.87 157.618C239.361 157.287 238.799 157.121 238.184 157.121C237.568 157.121 237.006 157.293 236.498 157.636C236.001 157.979 235.598 158.435 235.291 159.003C234.983 159.559 234.829 160.186 234.829 160.884ZM248.81 165.64C248.135 165.64 247.514 165.516 246.946 165.268C246.39 165.007 245.899 164.652 245.473 164.203C245.059 163.753 244.734 163.238 244.497 162.659C244.272 162.079 244.16 161.464 244.16 160.813C244.16 159.937 244.355 159.139 244.746 158.417C245.136 157.695 245.68 157.121 246.378 156.695C247.076 156.269 247.881 156.057 248.792 156.057C249.656 156.057 250.419 156.258 251.082 156.66C251.744 157.05 252.235 157.583 252.555 158.257L251.383 158.63C251.123 158.157 250.756 157.79 250.283 157.53C249.821 157.257 249.307 157.121 248.739 157.121C248.124 157.121 247.562 157.281 247.053 157.601C246.544 157.92 246.136 158.358 245.828 158.914C245.532 159.47 245.385 160.103 245.385 160.813C245.385 161.511 245.538 162.144 245.846 162.712C246.154 163.28 246.562 163.735 247.071 164.079C247.579 164.41 248.141 164.575 248.757 164.575C249.159 164.575 249.543 164.505 249.91 164.363C250.289 164.221 250.614 164.031 250.886 163.795C251.17 163.546 251.36 163.28 251.454 162.996L252.643 163.351C252.478 163.789 252.2 164.185 251.809 164.54C251.431 164.883 250.981 165.155 250.46 165.356C249.952 165.546 249.401 165.64 248.81 165.64Z" fill="#25262F" fill-opacity="0.6"/>
<path d="M76.5534 166.495L70.9004 160.842C70.449 161.226 69.9299 161.524 69.3431 161.735C68.7563 161.945 68.1665 162.051 67.5737 162.051C66.1281 162.051 64.9045 161.55 63.9031 160.549C62.9016 159.548 62.4009 158.325 62.4009 156.88C62.4009 155.434 62.901 154.21 63.9013 153.208C64.9015 152.206 66.1245 151.704 67.5701 151.703C69.0157 151.702 70.2398 152.203 71.2425 153.205C72.2452 154.208 72.7465 155.432 72.7465 156.877C72.7465 157.504 72.6355 158.111 72.4134 158.698C72.1913 159.285 71.8994 159.786 71.5377 160.204L77.1908 165.856L76.5534 166.495ZM67.5746 161.147C68.7723 161.147 69.7833 160.735 70.6079 159.91C71.4324 159.086 71.8447 158.074 71.8447 156.876C71.8447 155.678 71.4324 154.667 70.6079 153.843C69.7833 153.019 68.7723 152.606 67.5746 152.606C66.3769 152.605 65.3655 153.018 64.5404 153.843C63.7153 154.668 63.303 155.679 63.3036 156.876C63.3042 158.073 63.7165 159.084 64.5404 159.909C65.3643 160.734 66.3754 161.147 67.5737 161.146" fill="#415BE7"/>
<circle cx="62.1176" cy="92.2612" r="3.69748" stroke="#415BE7" stroke-width="1.47899"/>
<circle cx="125.714" cy="55.2846" r="3.69748" stroke="#415BE7" stroke-width="1.47899"/>
<circle cx="263.261" cy="39.0171" r="3.69748" stroke="#415BE7" stroke-width="1.47899"/>
<circle cx="343.126" cy="47.8921" r="3.69748" stroke="#415BE7" stroke-width="1.47899"/>
<path d="M66.1479 93.1189C96.8734 93.1189 94.6554 56.1441 122.35 56.1441" stroke="#415BE7" stroke-width="1.47899"/>
<path d="M344.448 44.5043C358.5 29.9997 372.955 7.5295 400.65 7.5295" stroke="url(#paint0_linear_1_9585)" stroke-width="1.47899"/>
<path d="M2.32175 129.806C33.0472 129.806 30.8292 92.8316 58.5234 92.8316" stroke="url(#paint1_linear_1_9585)" stroke-width="1.47899"/>
<path d="M186.174 92.8318C155.449 92.8318 157.667 55.857 129.973 55.857" stroke="#415BE7" stroke-width="1.47899"/>
<path d="M340 50.5C297.109 97.8277 289.883 38.846 267.52 38.8468" stroke="#415BE7" stroke-width="1.47899"/>
<path d="M185.717 92.8305C216.442 92.8305 231.129 39.0151 258.823 39.0151" stroke="#415BE7" stroke-width="1.47899"/>
<defs>
<linearGradient id="paint0_linear_1_9585" x1="346.677" y1="45.8476" x2="402.879" y2="8.87282" gradientUnits="userSpaceOnUse">
<stop stop-color="#415BE7"/>
<stop offset="0.75" stop-color="#415BE7" stop-opacity="0"/>
</linearGradient>
<linearGradient id="paint1_linear_1_9585" x1="2.5506" y1="130.154" x2="58.7523" y2="93.1795" gradientUnits="userSpaceOnUse">
<stop offset="0.21" stop-color="#415BE7" stop-opacity="0"/>
<stop offset="1" stop-color="#415BE7"/>
</linearGradient>
</defs>
</svg>
