<?xml version="1.0" encoding="utf-8"?><svg viewBox="0 0 110 103" xmlns="http://www.w3.org/2000/svg" xmlns:xlink="http://www.w3.org/1999/xlink"><style>:root>svg{display:none}:root>svg:target{display:block}</style><svg fill="none" viewBox="0 0 98 94" id="intro-1" xmlns="http://www.w3.org/2000/svg"><path stroke="red" stroke-opacity=".7" d="M89 93.5H0"/><path stroke="url(#apaint1_linear_2008_81)" stroke-opacity=".7" d="M98 10.5H0"/><path stroke="url(#apaint2_linear_2008_81)" stroke-opacity=".7" d="M88.5 0v20"/><rect x="19.505" y="37.857" width="40" height="40" rx="5" transform="rotate(-15 19.505 37.857)" fill="#fff"/><rect x="20.117" y="38.211" width="39" height="39" rx="4.5" transform="rotate(-15 20.117 38.211)" stroke="url(#apaint3_linear_2008_81)" stroke-opacity=".6"/><g clip-path="url(#aclip0_2008_81)"><path d="M46.004 58.666c-.05-.027-2.026-1.111-3.537-3.02l1.276-.341-.369-.549-1.305.35c-.466-.681-.86-1.447-1.088-2.297-.227-.849-.269-1.709-.205-2.533l5.147-1.379c.261.381.5.786.7 1.22l.703.048a8.561 8.561 0 00-.76-1.44l2.967-.795a6.83 6.83 0 011.108 2.291c.016.057.024.115.037.172l.647.044c-.026-.126-.047-.252-.08-.378-1.071-3.994-5.192-6.373-9.186-5.303-3.995 1.07-6.374 5.191-5.304 9.186 1.07 3.994 5.191 6.373 9.186 5.303.126-.034.245-.08.368-.119l-.302-.46h-.003zm-5.154-9.057c.283-1.912 1.074-3.516 1.405-4.121.588.36 2.072 1.355 3.27 2.869l-4.675 1.252zM49.1 47.4l-2.911.78c-1.074-1.437-2.408-2.448-3.208-2.974a6.884 6.884 0 016.119 2.194zm-7.615-1.793c-.43.855-1.081 2.397-1.294 4.18l-2.907.78a6.883 6.883 0 014.201-4.96zm-4.31 5.636l2.96-.794a8.102 8.102 0 00.244 2.523 8.1 8.1 0 001.05 2.307l-2.96.793a6.83 6.83 0 01-1.109-2.291 6.828 6.828 0 01-.186-2.538zm1.727 5.36l2.906-.779c1.076 1.439 2.41 2.448 3.212 2.974a6.883 6.883 0 01-6.118-2.195zm8.688 2.188l.44-4.463 3.645-2.613-9.26-.63 5.175 7.706zm-.154-4.806l-.297 3.014-3.495-5.203 6.252.425-2.46 1.764z" fill="#415BE7"/></g><defs><linearGradient id="apaint0_linear_2008_81" x1="0" y1="92.5" x2="89" y2="92.5" gradientUnits="userSpaceOnUse"><stop offset=".085" stop-color="#415BE7" stop-opacity="0"/><stop offset=".63" stop-color="#415BE7"/></linearGradient><linearGradient id="apaint1_linear_2008_81" x1="0" y1="9.5" x2="98" y2="9.5" gradientUnits="userSpaceOnUse"><stop offset=".085" stop-color="#415BE7" stop-opacity="0"/><stop offset=".63" stop-color="#415BE7"/></linearGradient><linearGradient id="apaint2_linear_2008_81" x1="87.5" y1="20" x2="87.5" y2="0" gradientUnits="userSpaceOnUse"><stop stop-color="#415BE7"/><stop offset="1" stop-color="#415BE7"/></linearGradient><linearGradient id="apaint3_linear_2008_81" x1="39.711" y1="77.857" x2="39.298" y2="37.857" gradientUnits="userSpaceOnUse"><stop stop-color="#415BE7"/><stop offset=".93" stop-color="#415BE7" stop-opacity=".3"/></linearGradient><clipPath id="aclip0_2008_81"><path fill="#fff" transform="rotate(-15 194.758 -108.873)" d="M0 0h15v15H0z"/></clipPath></defs></svg><svg fill="none" viewBox="0 0 110 103" id="intro-2" xmlns="http://www.w3.org/2000/svg"><path stroke="url(#bpaint0_linear_2008_83)" stroke-opacity=".7" d="M99 102.5v-98"/><path stroke="url(#bpaint1_linear_2008_83)" stroke-opacity=".7" d="M109.5 93h-20"/><path transform="matrix(0 1 1 0 10.5 .5)" stroke="url(#bpaint2_linear_2008_83)" stroke-opacity=".7" d="M0-.5h98"/><path transform="matrix(-1 0 0 1 20.5 10.5)" stroke="url(#bpaint3_linear_2008_83)" stroke-opacity=".7" d="M0-.5h20"/><rect x="30" y="37.353" width="40" height="40" rx="5" transform="rotate(-15 30 37.353)" fill="#fff"/><rect x="30.612" y="37.707" width="39" height="39" rx="4.5" transform="rotate(-15 30.612 37.707)" stroke="url(#bpaint4_linear_2008_83)" stroke-opacity=".6"/><g clip-path="url(#bclip0_2008_83)"><path d="M52.72 44.86c-3.994 1.07-6.373 5.19-5.303 9.185.633 2.362 2.408 4.283 4.75 5.14l.093.033 8.039-2.154.063-.075c1.6-1.913 2.177-4.464 1.544-6.826-1.07-3.995-5.19-6.374-9.185-5.303zm7.225 11.652l-7.655 2.051c-2.074-.792-3.706-2.578-4.269-4.68a6.883 6.883 0 014.861-8.42 6.883 6.883 0 018.42 4.862c.564 2.101.044 4.463-1.357 6.187zm-5.607-5.615c-.223.06-.416.177-.567.332l-3.251-1.877-.313.541 3.251 1.877a1.251 1.251 0 102.411.01 1.251 1.251 0 00-1.53-.883zm.486 1.811A.625.625 0 1154.5 51.5a.625.625 0 01.324 1.208zm4.168 1.896l-.541-.312a4.38 4.38 0 00-1.602-5.977 4.38 4.38 0 00-4.941.396l-.576-.332a5.007 5.007 0 015.83-.604 5.007 5.007 0 011.83 6.83zm-6.518 1.29l-.312.54a5.007 5.007 0 01-2.392-5.35l.576.332a4.38 4.38 0 002.128 4.477z" fill="#415BE7"/></g><defs><linearGradient id="bpaint0_linear_2008_83" x1="100" y1="4.5" x2="100" y2="102.5" gradientUnits="userSpaceOnUse"><stop offset=".085" stop-color="#415BE7" stop-opacity="0"/><stop offset=".63" stop-color="#415BE7"/></linearGradient><linearGradient id="bpaint1_linear_2008_83" x1="89.5" y1="92" x2="109.5" y2="92" gradientUnits="userSpaceOnUse"><stop stop-color="#415BE7"/><stop offset="1" stop-color="#415BE7"/></linearGradient><linearGradient id="bpaint2_linear_2008_83" x1="98" y1=".5" x2="0" y2=".5" gradientUnits="userSpaceOnUse"><stop offset=".085" stop-color="#415BE7" stop-opacity="0"/><stop offset=".63" stop-color="#415BE7"/></linearGradient><linearGradient id="bpaint3_linear_2008_83" x1="20" y1=".5" x2="0" y2=".5" gradientUnits="userSpaceOnUse"><stop stop-color="#415BE7"/><stop offset="1" stop-color="#415BE7"/></linearGradient><linearGradient id="bpaint4_linear_2008_83" x1="50.347" y1="77.353" x2="49.653" y2="37.353" gradientUnits="userSpaceOnUse"><stop stop-color="#415BE7"/><stop offset=".93" stop-color="#415BE7" stop-opacity=".3"/></linearGradient><clipPath id="bclip0_2008_83"><path fill="#fff" transform="rotate(-15 198.109 -149)" d="M0 0h15v15H0z"/></clipPath></defs></svg><svg fill="none" viewBox="0 0 98 103" id="intro-3" xmlns="http://www.w3.org/2000/svg"><path stroke="url(#cpaint0_linear_2008_84)" stroke-opacity=".7" d="M98 10.5H0"/><path stroke="url(#cpaint1_linear_2008_84)" stroke-opacity=".7" d="M88.5 0v20"/><path transform="matrix(1 0 0 -1 0 93)" stroke="url(#cpaint2_linear_2008_84)" stroke-opacity=".7" d="M0-.5h98"/><path transform="matrix(0 1 1 0 10 83)" stroke="url(#cpaint3_linear_2008_84)" stroke-opacity=".7" d="M0-.5h20"/><rect x="29.352" y="28" width="40" height="40" rx="5" transform="rotate(15 29.352 28)" fill="#fff"/><rect x="29.706" y="28.612" width="39" height="39" rx="4.5" transform="rotate(15 29.706 28.612)" stroke="url(#cpaint4_linear_2008_84)" stroke-opacity=".6"/><g clip-path="url(#cclip0_2008_84)"><path d="M45.51 54.656a.313.313 0 01-.382.221l-4.226-1.132a.313.313 0 01.161-.604l4.226 1.133a.313.313 0 01.221.382zm5.962-2.931l-1.779 6.64a2.816 2.816 0 01-3.445 1.989l-9.055-2.426a2.816 2.816 0 01-1.989-3.445l2.103-7.848a2.816 2.816 0 013.445-1.989l1.828.49c.233.062.45.18.631.34l1.65 1.463a.935.935 0 00.38.204l4.242 1.137a2.816 2.816 0 011.99 3.444zm-13.561-4.928l-.243.905 13.26 3.553a2.19 2.19 0 00-1.606-2.371l-4.243-1.137a1.565 1.565 0 01-.632-.34l-1.65-1.463a.935.935 0 00-.379-.204l-1.828-.49a2.19 2.19 0 00-2.679 1.547zm11.178 11.407l1.699-6.34-13.282-3.558-1.698 6.339a2.19 2.19 0 001.547 2.679l9.055 2.426a2.19 2.19 0 002.68-1.547z" fill="#415BE7"/></g><defs><linearGradient id="cpaint0_linear_2008_84" x1="0" y1="9.5" x2="98" y2="9.5" gradientUnits="userSpaceOnUse"><stop offset=".085" stop-color="#415BE7" stop-opacity="0"/><stop offset=".63" stop-color="#415BE7"/></linearGradient><linearGradient id="cpaint1_linear_2008_84" x1="87.5" y1="20" x2="87.5" y2="0" gradientUnits="userSpaceOnUse"><stop stop-color="#415BE7"/><stop offset="1" stop-color="#415BE7"/></linearGradient><linearGradient id="cpaint2_linear_2008_84" x1="98" y1=".5" x2="0" y2=".5" gradientUnits="userSpaceOnUse"><stop offset=".085" stop-color="#415BE7" stop-opacity="0"/><stop offset=".63" stop-color="#415BE7"/></linearGradient><linearGradient id="cpaint3_linear_2008_84" x1="20" y1=".5" x2="0" y2=".5" gradientUnits="userSpaceOnUse"><stop stop-color="#415BE7"/><stop offset="1" stop-color="#415BE7"/></linearGradient><linearGradient id="cpaint4_linear_2008_84" x1="49.422" y1="68" x2="49.283" y2="28" gradientUnits="userSpaceOnUse"><stop stop-color="#415BE7"/><stop offset=".93" stop-color="#415BE7" stop-opacity=".3"/></linearGradient><clipPath id="cclip0_2008_84"><path fill="#fff" transform="rotate(15 -145.405 166.724)" d="M0 0h15v15H0z"/></clipPath></defs></svg></svg>